<?xml version="1.0" standalone="no"?>
<!DOCTYPE svg PUBLIC "-//W3C//DTD SVG 20010904//EN"
 "http://www.w3.org/TR/2001/REC-SVG-20010904/DTD/svg10.dtd">
<svg version="1.0" xmlns="http://www.w3.org/2000/svg"
 width="1800.000000pt" height="1800.000000pt" viewBox="0 0 1800.000000 1800.000000"
 preserveAspectRatio="xMidYMid meet">

<g transform="translate(0.000000,1800.000000) scale(0.100000,-0.100000)"
fill="#000000" stroke="none">
<path d="M0 9000 l0 -9000 9000 0 9000 0 0 9000 0 9000 -9000 0 -9000 0 0
-9000z m11280 6048 c1 -27 170 -623 177 -625 6 -2 153 34 327 80 204 54 319
80 321 73 43 -137 275 -1039 269 -1045 -5 -5 -148 -45 -318 -89 -169 -44 -310
-83 -313 -86 -8 -8 186 -702 205 -736 7 -11 34 -14 143 -11 262 5 684 -84 969
-204 289 -122 605 -331 810 -537 273 -272 432 -512 569 -858 95 -242 167 -518
141 -544 -7 -7 -10 5 -10 36 0 26 -4 49 -9 52 -5 3 -11 23 -14 43 -6 42 -29
125 -37 133 -3 3 -6 16 -8 30 -5 46 -17 39 -17 -10 0 -26 3 -46 8 -43 4 2 7
-6 8 -19 1 -33 0 -128 -2 -163 l-2 -30 -7 35 -7 35 -2 -42 c0 -24 4 -43 9 -43
7 0 10 -155 10 -444 0 -286 -4 -447 -10 -451 -15 -9 -12 -25 5 -25 8 0 15 -7
15 -15 0 -8 -8 -15 -17 -15 -15 0 -16 -2 -3 -10 10 -6 11 -10 3 -10 -7 0 -13
-5 -13 -11 0 -5 5 -7 10 -4 6 3 10 -3 10 -14 0 -12 -4 -21 -9 -21 -13 0 -7
-48 7 -62 9 -9 12 -7 12 10 0 13 7 36 15 52 9 17 12 30 8 30 -4 0 -2 5 5 12 7
7 12 21 12 33 0 31 30 157 43 181 7 12 44 57 83 100 40 44 81 90 93 104 11 14
20 21 21 16 0 -9 -142 -181 -171 -206 -9 -8 -20 -35 -24 -60 -4 -25 -20 -101
-36 -170 -103 -431 -246 -721 -521 -1055 -190 -231 -341 -365 -587 -522 -239
-153 -454 -251 -681 -309 -168 -44 -188 -59 -93 -67 79 -7 470 -58 622 -81 58
-9 112 -16 120 -17 9 0 11 -3 5 -5 -7 -3 -101 7 -210 20 -284 36 -284 37 -284
27 0 -5 35 -12 78 -16 42 -4 101 -14 130 -22 l52 -14 1 -1122 c1 -1227 1
-1167 12 -1184 8 -13 8 -13 -255 2 -118 7 -126 6 -131 -11 -3 -13 -5 -11 -6 9
-1 21 -6 27 -23 27 -13 0 -115 7 -228 15 -440 31 -1082 63 -1710 87 -462 18
-3165 18 -3630 0 -781 -29 -1748 -82 -1977 -108 l-53 -5 0 -111 0 -110 -57 5
c-32 3 -141 23 -243 46 -175 38 -241 48 -228 35 4 -3 12 -6 20 -8 40 -6 50
-22 46 -71 l-5 -47 76 7 c42 4 74 5 71 2 -3 -2 -63 -17 -135 -32 -703 -146
-1445 -394 -2059 -689 -86 -41 -156 -72 -156 -68 0 3 8 15 19 26 33 38 811
1134 811 1144 0 5 -189 191 -420 412 -231 222 -418 405 -415 408 3 3 130 42
283 88 744 220 1070 315 1205 355 86 25 147 47 147 55 0 6 -36 169 -80 360
-44 192 -82 358 -83 368 -3 25 32 34 328 85 450 78 871 132 1428 182 79 7 136
17 134 22 -2 6 -46 24 -98 42 -446 150 -872 470 -1112 835 -68 105 -170 317
-206 430 -70 222 -79 259 -68 268 12 9 953 330 992 339 17 3 26 -13 69 -124
119 -316 258 -523 446 -665 119 -91 314 -171 483 -198 245 -39 567 -13 769 63
259 98 464 284 583 531 161 333 145 834 -36 1139 -76 129 -237 277 -389 360
-280 154 -685 168 -1008 36 -258 -105 -460 -288 -699 -633 -27 -38 -37 -45
-55 -41 -13 3 -214 46 -448 96 -234 50 -426 92 -428 94 -3 2 4 137 13 300 l18
296 -36 52 c-19 29 -77 112 -127 186 l-92 134 35 36 c19 20 85 91 148 158
l115 122 22 383 c23 379 29 477 77 1273 14 226 25 413 25 418 0 4 847 7 1883
7 l1883 0 -8 -67 c-4 -38 -22 -212 -38 -388 -17 -176 -35 -358 -40 -405 -6
-47 -10 -106 -10 -131 l0 -46 -187 -6 c-104 -4 -713 -7 -1355 -7 -642 0 -1169
-4 -1172 -8 -3 -5 -19 -215 -35 -468 -17 -252 -33 -475 -36 -495 -3 -20 -2
-38 1 -41 2 -3 78 31 167 76 334 169 634 236 997 223 578 -21 1072 -237 1472
-644 141 -143 275 -319 264 -346 -2 -7 -5 -4 -5 6 -1 9 -12 22 -26 29 -13 6
-22 15 -18 21 3 6 1 7 -6 3 -8 -6 -9 -12 -2 -20 7 -9 11 -384 11 -1151 0 -626
2 -1140 5 -1143 2 -2 -2 -11 -10 -19 -8 -8 -15 -19 -15 -24 0 -20 18 -7 42 29
74 110 105 163 136 224 33 68 50 91 32 43 -63 -166 -219 -394 -389 -568 -205
-211 -482 -402 -725 -501 -22 -9 -37 -18 -35 -21 3 -2 659 -6 1459 -8 1285 -4
1741 -11 1993 -32 50 -4 68 -2 65 6 -2 7 -67 37 -143 69 -246 99 -384 180
-580 336 -484 387 -763 827 -920 1454 -49 194 -69 590 -41 808 39 300 146 632
290 896 61 111 206 329 284 428 94 118 256 282 367 371 111 89 182 137 332
221 56 31 105 61 108 66 3 5 -37 169 -90 364 -52 195 -95 361 -95 370 0 8 -3
17 -8 19 -4 3 -153 -33 -331 -79 -179 -46 -327 -81 -331 -77 -3 5 -12 31 -19
58 -7 28 -68 259 -137 515 -68 255 -121 467 -116 470 6 6 248 70 605 161 20 5
37 14 37 19 0 5 -37 143 -81 307 -45 164 -82 304 -83 312 -1 11 134 50 519
152 489 129 545 143 545 137z m3560 -5061 c0 -2 -10 -12 -22 -23 l-23 -19 19
23 c18 21 26 27 26 19z m-6000 -1097 c-12 -33 -24 -59 -26 -57 -3 2 6 32 18
65 12 34 24 60 26 57 3 -2 -6 -32 -18 -65z m4648 -1457 c-10 -2 -26 -2 -35 0
-10 3 -2 5 17 5 19 0 27 -2 18 -5z m65 -10 c-7 -2 -19 -2 -25 0 -7 3 -2 5 12
5 14 0 19 -2 13 -5z m50 -10 c-7 -2 -19 -2 -25 0 -7 3 -2 5 12 5 14 0 19 -2
13 -5z m70 -10 c-7 -2 -19 -2 -25 0 -7 3 -2 5 12 5 14 0 19 -2 13 -5z m279
-849 c142 -39 880 -261 1008 -302 72 -23 106 -38 92 -40 -22 -3 -23 -5 -7 -22
15 -16 16 -45 13 -243 l-3 -225 25 19 c14 10 43 34 64 53 22 20 42 36 45 36 3
-1 -120 -124 -274 -275 -224 -219 -278 -277 -270 -289 6 -8 71 -102 146 -208
75 -106 165 -236 201 -288 l66 -95 -2 -172 -1 -172 43 -22 c90 -47 25 -27
-197 60 -617 242 -1304 439 -1796 515 -93 15 -190 30 -214 34 -50 8 -57 25
-14 30 40 4 486 100 556 119 32 9 59 19 62 22 3 6 184 787 301 1301 44 191 43
190 55 190 6 0 51 -12 101 -26z m1525 -460 c-3 -3 -12 -4 -19 -1 -8 3 -5 6 6
6 11 1 17 -2 13 -5z m-27 -17 c0 -2 -15 -16 -32 -33 l-33 -29 29 33 c28 30 36
37 36 29z m-95 -97 c-16 -16 -31 -27 -34 -24 -6 6 45 54 56 54 4 0 -6 -13 -22
-30z m-45 -33 c0 -2 -10 -12 -22 -23 l-23 -19 19 23 c18 21 26 27 26 19z m-50
-50 c0 -2 -15 -16 -32 -33 l-33 -29 29 33 c28 30 36 37 36 29z m-8695 -1003
c66 -22 75 -30 75 -69 l0 -32 -54 18 c-117 40 -220 32 -298 -22 -65 -46 -87
-167 -45 -249 52 -105 199 -138 340 -78 26 11 49 19 50 17 27 -48 27 -47 1
-68 -68 -53 -244 -74 -326 -39 -53 23 -126 94 -154 150 -31 60 -33 162 -5 224
34 76 117 141 208 164 50 12 146 5 208 -16z m1169 4 c8 -13 58 -115 111 -228
53 -113 105 -222 116 -243 26 -52 25 -57 -19 -57 -38 0 -39 1 -76 75 l-37 75
-125 0 c-110 0 -125 -2 -130 -17 -3 -10 -17 -44 -32 -76 -26 -58 -26 -58 -67
-55 -28 2 -40 7 -38 18 2 18 221 500 235 518 16 19 46 14 62 -10z m2300 -11
c114 -53 169 -132 169 -246 0 -216 -208 -343 -435 -265 -60 20 -130 82 -157
137 -24 50 -28 146 -9 209 15 49 88 132 139 159 89 45 202 47 293 6z m1308 7
c23 -12 28 -21 28 -49 0 -19 -3 -35 -6 -35 -3 0 -34 7 -67 16 -126 32 -197
-30 -116 -102 13 -11 56 -39 96 -62 92 -54 117 -92 111 -168 -4 -43 -11 -61
-34 -85 -54 -58 -111 -71 -200 -44 -60 17 -98 50 -88 74 3 9 8 25 9 36 2 11 4
22 4 24 1 3 11 -5 24 -17 57 -54 143 -67 182 -27 51 50 28 90 -87 160 -89 53
-124 91 -134 141 -22 117 151 203 278 138z m-4050 3 c10 -11 12 -68 10 -271
l-3 -257 -37 3 -37 3 -3 100 c-1 55 -7 104 -12 109 -5 5 -77 10 -160 10 l-150
1 0 -113 0 -113 -42 3 -43 3 -3 263 -2 263 42 -3 43 -3 5 -110 5 -110 155 0
155 0 3 112 3 112 27 4 c15 2 28 5 29 6 1 0 8 -5 15 -12z m995 -102 c47 -55
89 -101 94 -103 4 -2 48 44 99 101 78 90 96 105 126 109 19 2 37 2 39 -1 3 -2
5 -123 5 -268 l0 -263 -40 0 -40 0 0 195 c0 107 -4 195 -8 195 -5 0 -44 -42
-87 -92 -43 -51 -80 -94 -84 -95 -11 -4 -24 9 -106 106 l-80 94 -3 -202 -2
-202 -41 3 -40 3 0 258 c0 142 3 261 5 266 3 4 21 5 41 2 29 -5 50 -23 122
-106z m841 82 c37 -20 72 -84 72 -132 0 -16 -10 -48 -23 -70 -30 -54 -79 -77
-170 -79 -40 0 -75 -5 -79 -11 -4 -5 -8 -56 -8 -112 l0 -103 -40 0 -40 0 0
263 c0 145 2 266 4 268 2 2 60 2 128 -1 93 -4 131 -9 156 -23z m1499 -168 c97
-104 182 -189 187 -189 8 0 10 54 8 167 -4 211 -3 213 48 213 l40 0 0 -259 c0
-227 -2 -260 -16 -265 -46 -18 -61 -7 -244 189 -101 107 -186 192 -189 189 -3
-3 -8 -90 -11 -192 l-5 -187 -37 -3 -38 -3 0 260 c0 228 2 261 16 269 37 20
66 -3 241 -189z m-1209 -71 l-3 -263 -37 -3 -38 -3 -1 223 c-1 123 -3 234 -5
248 -5 48 4 60 47 60 l39 0 -2 -262z"/>
<path d="M8520 13521 c25 -15 83 -17 87 -3 3 8 -10 12 -49 12 -35 -1 -48 -4
-38 -9z"/>
<path d="M8521 12784 c0 -11 3 -14 6 -6 3 7 2 16 -1 19 -3 4 -6 -2 -5 -13z"/>
<path d="M11865 11494 c-259 -40 -551 -166 -747 -322 -97 -77 -244 -235 -303
-326 -192 -295 -266 -617 -221 -956 43 -323 163 -580 375 -803 194 -203 470
-360 766 -434 103 -26 124 -28 320 -28 227 0 318 13 493 72 432 145 762 483
905 928 107 335 91 677 -48 1006 -191 453 -650 800 -1148 868 -105 15 -281 12
-392 -5z"/>
<path d="M14470 10831 c0 -6 4 -13 10 -16 6 -3 7 1 4 9 -7 18 -14 21 -14 7z"/>
<path d="M14481 10614 c0 -11 3 -14 6 -6 3 7 2 16 -1 19 -3 4 -6 -2 -5 -13z"/>
<path d="M14484 9383 c4 -7 2 -22 -4 -33 -6 -12 -10 -29 -8 -38 3 -11 9 -3 17
21 11 31 11 41 1 50 -10 9 -11 9 -6 0z"/>
<path d="M8571 8457 c-13 -21 -12 -21 5 -5 10 10 16 20 13 22 -3 3 -11 -5 -18
-17z"/>
<path d="M8594 7233 l-212 -3 -92 -156 c-51 -85 -96 -152 -99 -147 -4 4 -47
74 -95 156 l-88 147 -224 0 c-172 0 -224 -3 -224 -12 -1 -7 -1 -348 0 -758 1
-569 4 -746 13 -752 15 -9 127 -10 314 -1 l143 6 2 371 3 370 78 -131 c42 -73
82 -135 87 -138 5 -3 44 53 86 125 43 71 81 130 86 130 4 0 8 -164 8 -365 l0
-365 230 0 c184 0 232 3 236 13 3 8 1 351 -3 763 -7 655 -10 749 -23 749 -8 0
-110 -1 -226 -2z"/>
<path d="M9485 7218 c-2 -7 -57 -220 -120 -473 -64 -253 -147 -583 -186 -733
-38 -150 -69 -279 -69 -287 0 -13 32 -15 237 -13 l237 3 27 118 c14 65 30 122
35 127 6 6 76 7 170 3 l160 -6 23 -116 c14 -69 30 -121 39 -128 12 -10 76 -13
240 -13 l224 0 -4 28 c-4 22 -136 600 -311 1357 l-32 140 -333 3 c-261 2 -333
0 -337 -10z m341 -595 c4 -21 17 -92 30 -157 12 -66 21 -123 18 -128 -3 -4
-37 -8 -76 -8 -55 0 -69 3 -65 14 3 7 20 82 39 165 18 83 36 151 40 151 4 0
10 -17 14 -37z"/>
<path d="M6748 7196 c-223 -11 -410 -24 -414 -29 -8 -8 -8 -6 6 -302 39 -784
63 -1201 69 -1208 7 -7 473 12 761 31 l105 7 -3 90 c-1 50 -5 137 -8 194 l-6
103 -185 -7 c-102 -4 -192 -8 -201 -9 -14 -1 -17 12 -20 86 l-3 86 108 6 c59
4 122 8 138 9 34 2 33 -11 20 251 l-7 138 -142 -3 -141 -4 -3 86 -3 87 178 6
c98 4 188 9 201 12 22 4 22 5 16 142 -10 212 -15 247 -39 248 -11 1 -203 -8
-427 -20z"/>
<path d="M10812 7203 c-5 -10 -13 -99 -16 -198 -4 -99 -20 -432 -36 -740 -16
-308 -25 -563 -21 -568 6 -6 157 -15 727 -43 82 -4 143 -3 147 2 3 5 9 93 13
195 l7 186 -39 6 c-22 4 -68 7 -104 7 -36 0 -110 3 -164 7 l-99 6 7 136 c11
238 35 731 42 867 l7 132 -199 6 c-109 4 -213 9 -231 12 -24 3 -34 0 -41 -13z"/>
<path d="M5780 7134 c-74 -8 -249 -24 -387 -37 -139 -13 -255 -26 -258 -29 -5
-5 11 -185 70 -788 8 -80 27 -274 42 -432 15 -164 32 -289 38 -291 13 -5 452
36 458 43 3 3 -5 108 -18 235 -13 126 -22 232 -19 234 2 3 66 11 141 18 75 7
139 16 142 19 5 5 -27 375 -33 382 -2 2 -68 -3 -147 -11 -79 -8 -145 -14 -145
-13 -7 5 -23 250 -17 256 4 4 91 16 193 25 102 10 189 21 193 25 5 4 1 92 -9
194 l-18 186 -45 -1 c-26 -1 -107 -8 -181 -15z"/>
<path d="M11976 7113 c-3 -21 -17 -164 -31 -318 -14 -154 -39 -417 -55 -585
-16 -168 -34 -359 -40 -425 -6 -66 -13 -125 -15 -132 -2 -7 0 -15 5 -18 5 -3
154 -19 332 -35 178 -17 370 -35 428 -40 59 -6 108 -6 113 -1 8 8 49 382 43
388 -1 1 -93 10 -204 20 l-202 17 5 36 c2 19 7 57 10 84 l7 49 51 -6 c29 -3
91 -9 139 -13 86 -7 87 -6 92 17 11 52 35 364 28 370 -4 3 -65 11 -136 18 -71
6 -131 13 -134 15 -2 2 0 41 4 85 5 68 9 81 23 77 21 -6 294 -30 346 -31 l40
0 7 50 c6 37 35 345 33 345 0 0 -128 11 -285 25 -157 13 -337 29 -400 35 -63
5 -134 10 -157 10 -40 0 -41 -1 -47 -37z"/>
<path d="M7663 4693 c-18 -42 -30 -80 -27 -85 6 -10 154 -11 153 0 -1 17 -75
156 -84 159 -6 2 -25 -31 -42 -74z"/>
<path d="M9812 4822 c-98 -35 -151 -116 -138 -209 25 -187 294 -247 408 -92
44 59 42 167 -3 230 -52 73 -171 105 -267 71z"/>
<path d="M8924 4816 c-3 -7 -4 -42 -2 -77 l3 -64 52 -3 c66 -4 120 18 129 52
11 44 -4 76 -41 92 -45 18 -134 19 -141 0z"/>
</g>
</svg>
